<svg width="24" height="25" viewBox="0 0 24 25" fill="none" xmlns="http://www.w3.org/2000/svg">
<path d="M5.54027 11.2559C0.860273 11.5859 0.860273 18.3959 5.54027 18.7259H7.46032" stroke="#ECFCFD" stroke-width="2" stroke-miterlimit="10" stroke-linecap="round" stroke-linejoin="round"/>
<path d="M5.59003 11.2559C2.38003 2.32588 15.92 -1.24411 17.47 8.13589C21.8 8.68589 23.55 14.4559 20.27 17.3259C19.27 18.2359 17.98 18.7359 16.63 18.7259H16.54" stroke="#ECFCFD" stroke-width="2" stroke-miterlimit="10" stroke-linecap="round" stroke-linejoin="round"/>
<path d="M17 16.6655C17 17.4055 16.84 18.1055 16.54 18.7255C16.46 18.9055 16.37 19.0755 16.27 19.2355C15.41 20.6855 13.82 21.6655 12 21.6655C10.18 21.6655 8.58998 20.6855 7.72998 19.2355C7.62998 19.0755 7.54002 18.9055 7.46002 18.7255C7.16002 18.1055 7 17.4055 7 16.6655C7 13.9055 9.24 11.6655 12 11.6655C14.76 11.6655 17 13.9055 17 16.6655Z" stroke="#ECFCFD" stroke-width="2" stroke-miterlimit="10" stroke-linecap="round" stroke-linejoin="round"/>
<path d="M10.4399 16.6655L11.4299 17.6555L13.5599 15.6855" stroke="#ECFCFD" stroke-width="2" stroke-linecap="round" stroke-linejoin="round"/>
</svg>
