<svg width="24" height="25" viewBox="0 0 24 25" fill="none" xmlns="http://www.w3.org/2000/svg">
<path d="M3.49994 20.6357C4.32994 21.4657 5.66994 21.4657 6.49994 20.6357L19.4999 7.63568C20.3299 6.80568 20.3299 5.46568 19.4999 4.63568C18.6699 3.80568 17.3299 3.80568 16.4999 4.63568L3.49994 17.6357C2.66994 18.4657 2.66994 19.8057 3.49994 20.6357Z" stroke="#ECFCFD" stroke-width="2" stroke-linecap="round" stroke-linejoin="round"/>
<path d="M18.0098 9.12598L15.0098 6.12598" stroke="#ECFCFD" stroke-width="1.5" stroke-linecap="round" stroke-linejoin="round"/>
<path d="M8.5 2.57574L10 2.13574L9.56 3.63574L10 5.13574L8.5 4.69574L7 5.13574L7.44 3.63574L7 2.13574L8.5 2.57574Z" stroke="#ECFCFD" stroke-linecap="round" stroke-linejoin="round"/>
<path d="M4.5 8.57574L6 8.13574L5.56 9.63574L6 11.1357L4.5 10.6957L3 11.1357L3.44 9.63574L3 8.13574L4.5 8.57574Z" stroke="#ECFCFD" stroke-linecap="round" stroke-linejoin="round"/>
<path d="M19.5 13.5757L21 13.1357L20.56 14.6357L21 16.1357L19.5 15.6957L18 16.1357L18.44 14.6357L18 13.1357L19.5 13.5757Z" stroke="#ECFCFD" stroke-linecap="round" stroke-linejoin="round"/>
</svg>
