<svg width="24" height="25" viewBox="0 0 24 25" fill="none" xmlns="http://www.w3.org/2000/svg">
<path d="M21.6602 10.5753L20.6802 14.7553C19.8402 18.3653 18.1802 19.8253 15.0602 19.5253C14.5602 19.4853 14.0202 19.3953 13.4402 19.2553L11.7602 18.8553C7.59018 17.8653 6.30018 15.8053 7.28018 11.6253L8.26018 7.43526C8.46018 6.58526 8.70018 5.84526 9.00018 5.23526C10.1702 2.81526 12.1602 2.16526 15.5002 2.95526L17.1702 3.34526C21.3602 4.32526 22.6402 6.39526 21.6602 10.5753Z" stroke="#ECFCFD" stroke-width="2" stroke-linecap="round" stroke-linejoin="round"/>
<path d="M15.0599 19.5254C14.4399 19.9454 13.6599 20.2954 12.7099 20.6054L11.1299 21.1254C7.15985 22.4054 5.06985 21.3354 3.77985 17.3654L2.49985 13.4154C1.21985 9.44535 2.27985 7.34535 6.24985 6.06535L7.82985 5.54535C8.23985 5.41535 8.62985 5.30535 8.99985 5.23535C8.69985 5.84535 8.45985 6.58535 8.25985 7.43535L7.27985 11.6254C6.29985 15.8054 7.58985 17.8654 11.7599 18.8554L13.4399 19.2554C14.0199 19.3954 14.5599 19.4854 15.0599 19.5254Z" stroke="#ECFCFD" stroke-width="2" stroke-linecap="round" stroke-linejoin="round"/>
</svg>
