<svg width="24" height="25" viewBox="0 0 24 25" fill="none" xmlns="http://www.w3.org/2000/svg">
<path d="M9.16006 11.0057C9.06006 10.9957 8.94006 10.9957 8.83006 11.0057C6.45006 10.9257 4.56006 8.97574 4.56006 6.57574C4.56006 4.12574 6.54006 2.13574 9.00006 2.13574C11.4501 2.13574 13.4401 4.12574 13.4401 6.57574C13.4301 8.97574 11.5401 10.9257 9.16006 11.0057Z" stroke="#ECFCFD" stroke-width="2" stroke-linecap="round" stroke-linejoin="round"/>
<path d="M16.4098 4.13574C18.3498 4.13574 19.9098 5.70574 19.9098 7.63574C19.9098 9.52574 18.4098 11.0657 16.5398 11.1357C16.4598 11.1257 16.3698 11.1257 16.2798 11.1357" stroke="#ECFCFD" stroke-width="2" stroke-linecap="round" stroke-linejoin="round"/>
<path d="M4.15973 14.6957C1.73973 16.3157 1.73973 18.9557 4.15973 20.5657C6.90973 22.4057 11.4197 22.4057 14.1697 20.5657C16.5897 18.9457 16.5897 16.3057 14.1697 14.6957C11.4297 12.8657 6.91973 12.8657 4.15973 14.6957Z" stroke="#ECFCFD" stroke-width="2" stroke-linecap="round" stroke-linejoin="round"/>
<path d="M18.3403 20.1357C19.0603 19.9857 19.7403 19.6957 20.3003 19.2657C21.8603 18.0957 21.8603 16.1657 20.3003 14.9957C19.7503 14.5757 19.0803 14.2957 18.3703 14.1357" stroke="#ECFCFD" stroke-width="2" stroke-linecap="round" stroke-linejoin="round"/>
</svg>
